<svg id="Layer_1" data-name="Layer 1" xmlns="http://www.w3.org/2000/svg" viewBox="0 0 36 48"><defs><style>.cls-1{fill:#1c1c1c;}.cls-2{fill:#4b4c4b;}</style></defs><title>Logo-dark</title><path class="cls-1" d="M17.84,44.25a.76.76,0,0,1-.45-.14l-13-9.88a.41.41,0,0,1,0-.69.79.79,0,0,1,.91,0l12.56,9.54,12.11-9.19L4.37,14.46a.41.41,0,0,1,0-.69l13-9.88a.8.8,0,0,1,.91,0l13,9.88a.41.41,0,0,1,0,.69.79.79,0,0,1-.91,0L17.84,4.93,5.73,14.12,31.31,33.54a.41.41,0,0,1,0,.69l-13,9.88A.76.76,0,0,1,17.84,44.25Z"/><path class="cls-2" d="M30.86,34.37a.58.58,0,0,1-.64-.49V15.3l-11.92,9a.8.8,0,0,1-.91,0l-11.92-9V33.88a.58.58,0,0,1-.64.49.58.58,0,0,1-.64-.49V14.38a.62.62,0,0,1,.48-.55,1,1,0,0,1,.85.13l12.32,9.35L30.16,14a1,1,0,0,1,.86-.13.62.62,0,0,1,.49.55v19.5A.58.58,0,0,1,30.86,34.37Z"/></svg>