<svg id="Layer_1" data-name="Layer 1" xmlns="http://www.w3.org/2000/svg" viewBox="0 0 64 64"><defs><style>.cls-1{fill:#fff;}</style></defs><path class="cls-1" d="M60.58,63.13H3.42A2.47,2.47,0,0,1,1,60.67V41.94a1.48,1.48,0,1,1,3,0V60.17H60.09V41.94a1.48,1.48,0,1,1,3,0V60.67A2.47,2.47,0,0,1,60.58,63.13Z"/><path class="cls-1" d="M32,39.3a1.48,1.48,0,0,1-1.48-1.48V2.35a1.48,1.48,0,0,1,3,0V37.82A1.48,1.48,0,0,1,32,39.3Z"/><path class="cls-1" d="M32,48.15,18.41,34.57a1.48,1.48,0,1,1,2.09-2.09L32,44l11.5-11.5a1.48,1.48,0,1,1,2.09,2.09Z"/></svg>