<?xml version="1.0" encoding="UTF-8"?>
<svg width="89px" height="44px" viewBox="0 0 89 44" version="1.1" xmlns="http://www.w3.org/2000/svg" xmlns:xlink="http://www.w3.org/1999/xlink">
    <!-- Generator: Sketch 47.1 (45422) - http://www.bohemiancoding.com/sketch -->
    <title>Group 12</title>
    <desc>Created with Sketch.</desc>
    <defs></defs>
    <g id="Page-1" stroke="none" stroke-width="1" fill="none" fill-rule="evenodd">
        <g id="Group-12" fill="#333333">
            <path d="M9.04893617,8.088 C8.96893577,8.21600064 8.88493661,8.30599974 8.79693617,8.358 C8.70893573,8.41000026 8.59693685,8.436 8.46093617,8.436 C8.31693545,8.436 8.16293699,8.3960004 7.99893617,8.316 C7.83493535,8.2359996 7.64493725,8.1460005 7.42893617,8.046 C7.21293509,7.9459995 6.96693755,7.8560004 6.69093617,7.776 C6.41493479,7.6959996 6.08893805,7.656 5.71293617,7.656 C5.12893325,7.656 4.66893785,7.77999876 4.33293617,8.028 C3.99693449,8.27600124 3.82893617,8.599998 3.82893617,9 C3.82893617,9.26400132 3.91493531,9.4859991 4.08693617,9.666 C4.25893703,9.8460009 4.48693475,10.0039993 4.77093617,10.14 C5.05493759,10.2760007 5.37693437,10.3979995 5.73693617,10.506 C6.09693797,10.6140005 6.46493429,10.7319994 6.84093617,10.86 C7.21693805,10.9880006 7.58493437,11.1339992 7.94493617,11.298 C8.30493797,11.4620008 8.62693475,11.6699987 8.91093617,11.922 C9.19493759,12.1740013 9.42293531,12.4759982 9.59493617,12.828 C9.76693703,13.1800018 9.85293617,13.6039975 9.85293617,14.1 C9.85293617,14.692003 9.74493725,15.2379975 9.52893617,15.738 C9.31293509,16.2380025 8.99693825,16.6699982 8.58093617,17.034 C8.16493409,17.3980018 7.65093923,17.681999 7.03893617,17.886 C6.42693311,18.090001 5.72494013,18.192 4.93293617,18.192 C4.50893405,18.192 4.09493819,18.1540004 3.69093617,18.078 C3.28693415,18.0019996 2.89893803,17.8960007 2.52693617,17.76 C2.15493431,17.6239993 1.81093775,17.4640009 1.49493617,17.28 C1.17893459,17.0959991 0.900937372,16.8960011 0.660936172,16.68 L1.34493617,15.552 C1.43293661,15.4159993 1.53693557,15.3120004 1.65693617,15.24 C1.77693677,15.1679996 1.92893525,15.132 2.11293617,15.132 C2.29693709,15.132 2.47093535,15.1839995 2.63493617,15.288 C2.79893699,15.3920005 2.98893509,15.5039994 3.20493617,15.624 C3.42093725,15.7440006 3.67493471,15.8559995 3.96693617,15.96 C4.25893763,16.0640005 4.62893393,16.116 5.07693617,16.116 C5.42893793,16.116 5.73093491,16.0740004 5.98293617,15.99 C6.23493743,15.9059996 6.44293535,15.7960007 6.60693617,15.66 C6.77093699,15.5239993 6.89093579,15.3660009 6.96693617,15.186 C7.04293655,15.0059991 7.08093617,14.820001 7.08093617,14.628 C7.08093617,14.3399986 6.99493703,14.1040009 6.82293617,13.92 C6.65093531,13.7359991 6.42293759,13.5760007 6.13893617,13.44 C5.85493475,13.3039993 5.53093799,13.1820005 5.16693617,13.074 C4.80293435,12.9659995 4.43093807,12.8480006 4.05093617,12.72 C3.67093427,12.5919994 3.29893799,12.4420009 2.93493617,12.27 C2.57093435,12.0979991 2.24693759,11.8800013 1.96293617,11.616 C1.67893475,11.3519987 1.45093703,11.0280019 1.27893617,10.644 C1.10693531,10.2599981 1.02093617,9.79600272 1.02093617,9.252 C1.02093617,8.74799748 1.12093517,8.26800228 1.32093617,7.812 C1.52093717,7.35599772 1.81493423,6.9580017 2.20293617,6.618 C2.59093811,6.2779983 3.07493327,6.00600102 3.65493617,5.802 C4.23493907,5.59799898 4.90493237,5.496 5.66493617,5.496 C6.51294041,5.496 7.28493269,5.6359986 7.98093617,5.916 C8.67693965,6.1960014 9.25693385,6.56399772 9.72093617,7.02 L9.04893617,8.088 Z M21.8156596,18 L20.4836596,18 C20.2036582,18 19.9836604,17.9580004 19.8236596,17.874 C19.6636588,17.7899996 19.54366,17.6200013 19.4636596,17.364 L19.1996596,16.488 C18.887658,16.7680014 18.5816611,17.0139989 18.2816596,17.226 C17.9816581,17.4380011 17.6716612,17.6159993 17.3516596,17.76 C17.031658,17.9040007 16.6916614,18.0119996 16.3316596,18.084 C15.9716578,18.1560004 15.5716618,18.192 15.1316596,18.192 C14.611657,18.192 14.1316618,18.1220007 13.6916596,17.982 C13.2516574,17.8419993 12.8736612,17.6320014 12.5576596,17.352 C12.241658,17.0719986 11.9956605,16.7240021 11.8196596,16.308 C11.6436587,15.8919979 11.5556596,15.4080028 11.5556596,14.856 C11.5556596,14.3919977 11.6776584,13.9340023 11.9216596,13.482 C12.1656608,13.0299977 12.5716567,12.6220018 13.1396596,12.258 C13.7076624,11.8939982 14.4636549,11.5920012 15.4076596,11.352 C16.3516643,11.1119988 17.5236526,10.9760002 18.9236596,10.944 L18.9236596,10.224 C18.9236596,9.39999588 18.7496613,8.79000198 18.4016596,8.394 C18.0536578,7.99799802 17.5476629,7.8 16.8836596,7.8 C16.4036572,7.8 16.0036612,7.85599944 15.6836596,7.968 C15.363658,8.08000056 15.0856608,8.2059993 14.8496596,8.346 C14.6136584,8.4860007 14.3956606,8.61199944 14.1956596,8.724 C13.9956586,8.83600056 13.7756608,8.892 13.5356596,8.892 C13.3356586,8.892 13.1636603,8.84000052 13.0196596,8.736 C12.8756589,8.63199948 12.75966,8.50400076 12.6716596,8.352 L12.1316596,7.404 C13.5476667,6.10799352 15.2556496,5.46 17.2556596,5.46 C17.9756632,5.46 18.6176568,5.57799882 19.1816596,5.814 C19.7456624,6.05000118 20.2236576,6.3779979 20.6156596,6.798 C21.0076615,7.2180021 21.3056586,7.71999708 21.5096596,8.304 C21.7136606,8.88800292 21.8156596,9.52799652 21.8156596,10.224 L21.8156596,18 Z M16.0556596,16.152 C16.3596611,16.152 16.6396583,16.1240003 16.8956596,16.068 C17.1516609,16.0119997 17.3936584,15.9280006 17.6216596,15.816 C17.8496607,15.7039994 18.0696585,15.5660008 18.2816596,15.402 C18.4936606,15.2379992 18.7076585,15.0440011 18.9236596,14.82 L18.9236596,12.744 C18.0596553,12.7840002 17.3376625,12.8579995 16.7576596,12.966 C16.1776567,13.0740005 15.7116613,13.2119992 15.3596596,13.38 C15.0076578,13.5480008 14.7576603,13.7439989 14.6096596,13.968 C14.4616588,14.1920011 14.3876596,14.4359987 14.3876596,14.7 C14.3876596,15.2200026 14.541658,15.5919989 14.8496596,15.816 C15.1576611,16.0400011 15.5596571,16.152 16.0556596,16.152 Z M27.670383,0.168 L27.670383,10.38 L28.222383,10.38 C28.422384,10.38 28.5783824,10.3520003 28.690383,10.296 C28.8023835,10.2399997 28.9223823,10.1360008 29.050383,9.984 L32.110383,6.204 C32.2463837,6.0439992 32.3903822,5.91800046 32.542383,5.826 C32.6943837,5.73399954 32.8943817,5.688 33.142383,5.688 L35.854383,5.688 L32.026383,10.26 C31.8903823,10.4280008 31.7503837,10.5819993 31.606383,10.722 C31.4623823,10.8620007 31.3063838,10.9839995 31.138383,11.088 C31.3063838,11.2080006 31.4543823,11.3479992 31.582383,11.508 C31.7103836,11.6680008 31.8383823,11.8399991 31.966383,12.024 L36.070383,18 L33.394383,18 C33.1623818,18 32.9663838,17.9600004 32.806383,17.88 C32.6463822,17.7999996 32.5023836,17.664001 32.374383,17.472 L29.242383,12.804 C29.1223824,12.6199991 29.0023836,12.5000003 28.882383,12.444 C28.7623824,12.3879997 28.5823842,12.36 28.342383,12.36 L27.670383,12.36 L27.670383,18 L24.706383,18 L24.706383,0.168 L27.670383,0.168 Z M45.1531064,8.088 C45.073106,8.21600064 44.9891068,8.30599974 44.9011064,8.358 C44.8131059,8.41000026 44.7011071,8.436 44.5651064,8.436 C44.4211057,8.436 44.2671072,8.3960004 44.1031064,8.316 C43.9391056,8.2359996 43.7491075,8.1460005 43.5331064,8.046 C43.3171053,7.9459995 43.0711078,7.8560004 42.7951064,7.776 C42.519105,7.6959996 42.1931083,7.656 41.8171064,7.656 C41.2331035,7.656 40.7731081,7.77999876 40.4371064,8.028 C40.1011047,8.27600124 39.9331064,8.599998 39.9331064,9 C39.9331064,9.26400132 40.0191055,9.4859991 40.1911064,9.666 C40.3631072,9.8460009 40.591105,10.0039993 40.8751064,10.14 C41.1591078,10.2760007 41.4811046,10.3979995 41.8411064,10.506 C42.2011082,10.6140005 42.5691045,10.7319994 42.9451064,10.86 C43.3211083,10.9880006 43.6891046,11.1339992 44.0491064,11.298 C44.4091082,11.4620008 44.731105,11.6699987 45.0151064,11.922 C45.2991078,12.1740013 45.5271055,12.4759982 45.6991064,12.828 C45.8711072,13.1800018 45.9571064,13.6039975 45.9571064,14.1 C45.9571064,14.692003 45.8491075,15.2379975 45.6331064,15.738 C45.4171053,16.2380025 45.1011085,16.6699982 44.6851064,17.034 C44.2691043,17.3980018 43.7551094,17.681999 43.1431064,17.886 C42.5311033,18.090001 41.8291103,18.192 41.0371064,18.192 C40.6131043,18.192 40.1991084,18.1540004 39.7951064,18.078 C39.3911044,18.0019996 39.0031082,17.8960007 38.6311064,17.76 C38.2591045,17.6239993 37.915108,17.4640009 37.5991064,17.28 C37.2831048,17.0959991 37.0051076,16.8960011 36.7651064,16.68 L37.4491064,15.552 C37.5371068,15.4159993 37.6411058,15.3120004 37.7611064,15.24 C37.881107,15.1679996 38.0331055,15.132 38.2171064,15.132 C38.4011073,15.132 38.5751056,15.1839995 38.7391064,15.288 C38.9031072,15.3920005 39.0931053,15.5039994 39.3091064,15.624 C39.5251075,15.7440006 39.7791049,15.8559995 40.0711064,15.96 C40.3631078,16.0640005 40.7331041,16.116 41.1811064,16.116 C41.5331081,16.116 41.8351051,16.0740004 42.0871064,15.99 C42.3391076,15.9059996 42.5471056,15.7960007 42.7111064,15.66 C42.8751072,15.5239993 42.995106,15.3660009 43.0711064,15.186 C43.1471068,15.0059991 43.1851064,14.820001 43.1851064,14.628 C43.1851064,14.3399986 43.0991072,14.1040009 42.9271064,13.92 C42.7551055,13.7359991 42.5271078,13.5760007 42.2431064,13.44 C41.959105,13.3039993 41.6351082,13.1820005 41.2711064,13.074 C40.9071046,12.9659995 40.5351083,12.8480006 40.1551064,12.72 C39.7751045,12.5919994 39.4031082,12.4420009 39.0391064,12.27 C38.6751046,12.0979991 38.3511078,11.8800013 38.0671064,11.616 C37.783105,11.3519987 37.5551072,11.0280019 37.3831064,10.644 C37.2111055,10.2599981 37.1251064,9.79600272 37.1251064,9.252 C37.1251064,8.74799748 37.2251054,8.26800228 37.4251064,7.812 C37.6251074,7.35599772 37.9191044,6.9580017 38.3071064,6.618 C38.6951083,6.2779983 39.1791035,6.00600102 39.7591064,5.802 C40.3391093,5.59799898 41.0091026,5.496 41.7691064,5.496 C42.6171106,5.496 43.3891029,5.6359986 44.0851064,5.916 C44.7811099,6.1960014 45.3611041,6.56399772 45.8251064,7.02 L45.1531064,8.088 Z M48.2718298,18 L48.2718298,0.168 L51.2358298,0.168 L51.2358298,7.02 C51.7158322,6.56399772 52.2438269,6.1960014 52.8198298,5.916 C53.3958327,5.6359986 54.0718259,5.496 54.8478298,5.496 C55.5198331,5.496 56.1158272,5.60999886 56.6358298,5.838 C57.1558324,6.06600114 57.589828,6.38599794 57.9378298,6.798 C58.2858315,7.21000206 58.5498289,7.70199714 58.7298298,8.274 C58.9098307,8.84600286 58.9998298,9.47599656 58.9998298,10.164 L58.9998298,18 L56.0358298,18 L56.0358298,10.164 C56.0358298,9.41199624 55.8618315,8.83000206 55.5138298,8.418 C55.165828,8.00599794 54.6438333,7.8 53.9478298,7.8 C53.4358272,7.8 52.955832,7.91599884 52.5078298,8.148 C52.0598275,8.38000116 51.6358318,8.695998 51.2358298,9.096 L51.2358298,18 L48.2718298,18 Z M71.5025532,18 L70.1705532,18 C69.8905518,18 69.670554,17.9580004 69.5105532,17.874 C69.3505524,17.7899996 69.2305536,17.6200013 69.1505532,17.364 L68.8865532,16.488 C68.5745516,16.7680014 68.2685547,17.0139989 67.9685532,17.226 C67.6685517,17.4380011 67.3585548,17.6159993 67.0385532,17.76 C66.7185516,17.9040007 66.378555,18.0119996 66.0185532,18.084 C65.6585514,18.1560004 65.2585554,18.192 64.8185532,18.192 C64.2985506,18.192 63.8185554,18.1220007 63.3785532,17.982 C62.938551,17.8419993 62.5605548,17.6320014 62.2445532,17.352 C61.9285516,17.0719986 61.6825541,16.7240021 61.5065532,16.308 C61.3305523,15.8919979 61.2425532,15.4080028 61.2425532,14.856 C61.2425532,14.3919977 61.364552,13.9340023 61.6085532,13.482 C61.8525544,13.0299977 62.2585504,12.6220018 62.8265532,12.258 C63.394556,11.8939982 64.1505485,11.5920012 65.0945532,11.352 C66.0385579,11.1119988 67.2105462,10.9760002 68.6105532,10.944 L68.6105532,10.224 C68.6105532,9.39999588 68.4365549,8.79000198 68.0885532,8.394 C67.7405515,7.99799802 67.2345565,7.8 66.5705532,7.8 C66.0905508,7.8 65.6905548,7.85599944 65.3705532,7.968 C65.0505516,8.08000056 64.7725544,8.2059993 64.5365532,8.346 C64.300552,8.4860007 64.0825542,8.61199944 63.8825532,8.724 C63.6825522,8.83600056 63.4625544,8.892 63.2225532,8.892 C63.0225522,8.892 62.8505539,8.84000052 62.7065532,8.736 C62.5625525,8.63199948 62.4465536,8.50400076 62.3585532,8.352 L61.8185532,7.404 C63.2345603,6.10799352 64.9425432,5.46 66.9425532,5.46 C67.6625568,5.46 68.3045504,5.57799882 68.8685532,5.814 C69.432556,6.05000118 69.9105512,6.3779979 70.3025532,6.798 C70.6945552,7.2180021 70.9925522,7.71999708 71.1965532,8.304 C71.4005542,8.88800292 71.5025532,9.52799652 71.5025532,10.224 L71.5025532,18 Z M65.7425532,16.152 C66.0465547,16.152 66.3265519,16.1240003 66.5825532,16.068 C66.8385545,16.0119997 67.0805521,15.9280006 67.3085532,15.816 C67.5365543,15.7039994 67.7565521,15.5660008 67.9685532,15.402 C68.1805543,15.2379992 68.3945521,15.0440011 68.6105532,14.82 L68.6105532,12.744 C67.7465489,12.7840002 67.0245561,12.8579995 66.4445532,12.966 C65.8645503,13.0740005 65.398555,13.2119992 65.0465532,13.38 C64.6945514,13.5480008 64.4445539,13.7439989 64.2965532,13.968 C64.1485525,14.1920011 64.0745532,14.4359987 64.0745532,14.7 C64.0745532,15.2200026 64.2285517,15.5919989 64.5365532,15.816 C64.8445547,16.0400011 65.2465507,16.152 65.7425532,16.152 Z M78.4012766,18.192 C77.3372713,18.192 76.5172795,17.890003 75.9412766,17.286 C75.3652737,16.681997 75.0772766,15.8480053 75.0772766,14.784 L75.0772766,7.908 L73.8292766,7.908 C73.6692758,7.908 73.5312772,7.85600052 73.4152766,7.752 C73.299276,7.64799948 73.2412766,7.49200104 73.2412766,7.284 L73.2412766,6.108 L75.2212766,5.784 L75.8452766,2.424 C75.8772768,2.2639992 75.951276,2.14000044 76.0672766,2.052 C76.1832772,1.96399956 76.3292757,1.92 76.5052766,1.92 L78.0412766,1.92 L78.0412766,5.796 L81.2812766,5.796 L81.2812766,7.908 L78.0412766,7.908 L78.0412766,14.58 C78.0412766,14.9640019 78.1372756,15.2639989 78.3292766,15.48 C78.5212776,15.6960011 78.777275,15.804 79.0972766,15.804 C79.2812775,15.804 79.435276,15.7820002 79.5592766,15.738 C79.6832772,15.6939998 79.7912761,15.6480002 79.8832766,15.6 C79.9752771,15.5519998 80.0572762,15.5060002 80.1292766,15.462 C80.201277,15.4179998 80.2732762,15.396 80.3452766,15.396 C80.433277,15.396 80.5052763,15.4179998 80.5612766,15.462 C80.6172769,15.5060002 80.6772763,15.5719996 80.7412766,15.66 L81.6292766,17.1 C81.1972744,17.4600018 80.7012794,17.7319991 80.1412766,17.916 C79.5812738,18.1000009 79.0012796,18.192 78.4012766,18.192 Z" id="sakshat"></path>
            <path d="M29.610383,26.472 C30.1383856,26.472 30.6343807,26.5259995 31.098383,26.634 C31.5623853,26.7420005 31.9863811,26.899999 32.370383,27.108 L35.910383,27.108 L35.910383,28.212 C35.910383,28.3960009 35.8623835,28.5399995 35.766383,28.644 C35.6703825,28.7480005 35.5063841,28.8199998 35.274383,28.86 L34.170383,29.064 C34.2503834,29.272001 34.3123828,29.4919988 34.356383,29.724 C34.4003832,29.9560012 34.422383,30.1999987 34.422383,30.456 C34.422383,31.064003 34.3003842,31.6139975 34.056383,32.106 C33.8123818,32.5980025 33.4763851,33.0159983 33.048383,33.36 C32.6203808,33.7040017 32.1123859,33.9699991 31.524383,34.158 C30.93638,34.3460009 30.2983864,34.44 29.610383,34.44 C29.1463807,34.44 28.6943852,34.3960004 28.254383,34.308 C27.8703811,34.5400012 27.678383,34.7999986 27.678383,35.088 C27.678383,35.3360012 27.7923818,35.5179994 28.020383,35.634 C28.2483841,35.7500006 28.5483811,35.8319998 28.920383,35.88 C29.2923848,35.9280002 29.7143806,35.9579999 30.186383,35.97 C30.6583853,35.9820001 31.1423805,36.0079998 31.638383,36.048 C32.1343855,36.0880002 32.6183806,36.1579995 33.090383,36.258 C33.5623853,36.3580005 33.9843811,36.5159989 34.356383,36.732 C34.7283848,36.9480011 35.0283818,37.2419981 35.256383,37.614 C35.4843841,37.9860019 35.598383,38.4639971 35.598383,39.048 C35.598383,39.5920027 35.4643843,40.1199974 35.196383,40.632 C34.9283816,41.1440026 34.5403855,41.599998 34.032383,42 C33.5243804,42.400002 32.9023867,42.7219988 32.166383,42.966 C31.4303793,43.2100012 30.5903877,43.332 29.646383,43.332 C28.7103783,43.332 27.8983864,43.2420009 27.210383,43.062 C26.5223795,42.8819991 25.9523852,42.6420015 25.500383,42.342 C25.0483807,42.0419985 24.7103841,41.696002 24.486383,41.304 C24.2623819,40.911998 24.150383,40.5040021 24.150383,40.08 C24.150383,39.5039971 24.3263812,39.020002 24.678383,38.628 C25.0303847,38.235998 25.5183799,37.9240012 26.142383,37.692 C25.8383815,37.5239992 25.5943839,37.3000014 25.410383,37.02 C25.2263821,36.7399986 25.134383,36.3760022 25.134383,35.928 C25.134383,35.7439991 25.1663827,35.554001 25.230383,35.358 C25.2943833,35.161999 25.3923823,34.968001 25.524383,34.776 C25.6563836,34.583999 25.822382,34.4020009 26.022383,34.23 C26.222384,34.0579991 26.4583816,33.9040007 26.730383,33.768 C26.1063799,33.4319983 25.6163848,32.9840028 25.260383,32.424 C24.9043812,31.8639972 24.726383,31.2080038 24.726383,30.456 C24.726383,29.847997 24.8483818,29.2980025 25.092383,28.806 C25.3363842,28.3139975 25.6763808,27.8940017 26.112383,27.546 C26.5483852,27.1979983 27.06438,26.9320009 27.660383,26.748 C28.256386,26.5639991 28.9063795,26.472 29.610383,26.472 Z M32.862383,39.552 C32.862383,39.3119988 32.7903837,39.1160008 32.646383,38.964 C32.5023823,38.8119992 32.3063842,38.6940004 32.058383,38.61 C31.8103817,38.5259996 31.5203846,38.4640002 31.188383,38.424 C30.8563813,38.3839998 30.5043848,38.3540001 30.132383,38.334 C29.7603811,38.3139999 29.376385,38.2940001 28.980383,38.274 C28.584381,38.2539999 28.2023848,38.2200002 27.834383,38.172 C27.4983813,38.3560009 27.228384,38.5739987 27.024383,38.826 C26.820382,39.0780013 26.718383,39.3679984 26.718383,39.696 C26.718383,39.9120011 26.7723824,40.1139991 26.880383,40.302 C26.9883835,40.4900009 27.1603818,40.6519993 27.396383,40.788 C27.6323842,40.9240007 27.9383811,41.0299996 28.314383,41.106 C28.6903849,41.1820004 29.1503803,41.22 29.694383,41.22 C30.2463857,41.22 30.722381,41.1780004 31.122383,41.094 C31.522385,41.0099996 31.8523817,40.8940007 32.112383,40.746 C32.3723843,40.5979993 32.5623824,40.422001 32.682383,40.218 C32.8023836,40.013999 32.862383,39.7920012 32.862383,39.552 Z M29.610383,32.544 C29.9783848,32.544 30.2983816,32.4940005 30.570383,32.394 C30.8423843,32.2939995 31.0683821,32.1560009 31.248383,31.98 C31.4283839,31.8039991 31.5643825,31.5920012 31.656383,31.344 C31.7483834,31.0959988 31.794383,30.8240015 31.794383,30.528 C31.794383,29.919997 31.6123848,29.4380018 31.248383,29.082 C30.8843812,28.7259982 30.3383866,28.548 29.610383,28.548 C28.8823793,28.548 28.3363848,28.7259982 27.972383,29.082 C27.6083812,29.4380018 27.426383,29.919997 27.426383,30.528 C27.426383,30.8160014 27.4723825,31.0839988 27.564383,31.332 C27.6563834,31.5800012 27.7923821,31.7939991 27.972383,31.974 C28.1523839,32.1540009 28.3803816,32.2939995 28.656383,32.394 C28.9323844,32.4940005 29.2503812,32.544 29.610383,32.544 Z M42.9651064,26.496 C43.885111,26.496 44.7191026,26.6439985 45.4671064,26.94 C46.2151101,27.2360015 46.8531037,27.6559973 47.3811064,28.2 C47.909109,28.7440027 48.3171049,29.4079961 48.6051064,30.192 C48.8931078,30.9760039 49.0371064,31.8519952 49.0371064,32.82 C49.0371064,33.7960049 48.8931078,34.6759961 48.6051064,35.46 C48.3171049,36.2440039 47.909109,36.9119972 47.3811064,37.464 C46.8531037,38.0160028 46.2151101,38.4399985 45.4671064,38.736 C44.7191026,39.0320015 43.885111,39.18 42.9651064,39.18 C42.0451018,39.18 41.2091101,39.0320015 40.4571064,38.736 C39.7051026,38.4399985 39.063109,38.0160028 38.5311064,37.464 C37.9991037,36.9119972 37.5871078,36.2440039 37.2951064,35.46 C37.0031049,34.6759961 36.8571064,33.7960049 36.8571064,32.82 C36.8571064,31.8519952 37.0031049,30.9760039 37.2951064,30.192 C37.5871078,29.4079961 37.9991037,28.7440027 38.5311064,28.2 C39.063109,27.6559973 39.7051026,27.2360015 40.4571064,26.94 C41.2091101,26.6439985 42.0451018,26.496 42.9651064,26.496 Z M42.9651064,36.9 C43.9891115,36.9 44.7471039,36.5560034 45.2391064,35.868 C45.7311088,35.1799966 45.9771064,34.1720066 45.9771064,32.844 C45.9771064,31.5159934 45.7311088,30.5040035 45.2391064,29.808 C44.7471039,29.1119965 43.9891115,28.764 42.9651064,28.764 C41.9251012,28.764 41.1571089,29.1139965 40.6611064,29.814 C40.1651039,30.5140035 39.9171064,31.5239934 39.9171064,32.844 C39.9171064,34.1640066 40.1651039,35.1699965 40.6611064,35.862 C41.1571089,36.5540035 41.9251012,36.9 42.9651064,36.9 Z M55.2638298,42.384 C55.1758293,42.592001 55.0618305,42.7499995 54.9218298,42.858 C54.7818291,42.9660005 54.5678312,43.02 54.2798298,43.02 L52.0718298,43.02 L54.3758298,38.088 L49.3958298,26.688 L51.9878298,26.688 C52.227831,26.688 52.4118291,26.7439994 52.5398298,26.856 C52.6678304,26.9680006 52.7638295,27.0959993 52.8278298,27.24 L55.4558298,33.624 C55.5438302,33.832001 55.6198295,34.0479989 55.6838298,34.272 C55.7478301,34.4960011 55.8038295,34.7199989 55.8518298,34.944 C55.9158301,34.7119988 55.9858294,34.4880011 56.0618298,34.272 C56.1378302,34.0559989 56.2198293,33.8360011 56.3078298,33.612 L58.7798298,27.24 C58.8438301,27.0799992 58.949829,26.9480005 59.0978298,26.844 C59.2458305,26.7399995 59.4118289,26.688 59.5958298,26.688 L61.9718298,26.688 L55.2638298,42.384 Z M73.2865532,39 L71.9545532,39 C71.6745518,39 71.454554,38.9580004 71.2945532,38.874 C71.1345524,38.7899996 71.0145536,38.6200013 70.9345532,38.364 L70.6705532,37.488 C70.3585516,37.7680014 70.0525547,38.0139989 69.7525532,38.226 C69.4525517,38.4380011 69.1425548,38.6159993 68.8225532,38.76 C68.5025516,38.9040007 68.162555,39.0119996 67.8025532,39.084 C67.4425514,39.1560004 67.0425554,39.192 66.6025532,39.192 C66.0825506,39.192 65.6025554,39.1220007 65.1625532,38.982 C64.722551,38.8419993 64.3445548,38.6320014 64.0285532,38.352 C63.7125516,38.0719986 63.4665541,37.7240021 63.2905532,37.308 C63.1145523,36.8919979 63.0265532,36.4080028 63.0265532,35.856 C63.0265532,35.3919977 63.148552,34.9340023 63.3925532,34.482 C63.6365544,34.0299977 64.0425504,33.6220018 64.6105532,33.258 C65.178556,32.8939982 65.9345485,32.5920012 66.8785532,32.352 C67.8225579,32.1119988 68.9945462,31.9760002 70.3945532,31.944 L70.3945532,31.224 C70.3945532,30.3999959 70.2205549,29.790002 69.8725532,29.394 C69.5245515,28.997998 69.0185565,28.8 68.3545532,28.8 C67.8745508,28.8 67.4745548,28.8559994 67.1545532,28.968 C66.8345516,29.0800006 66.5565544,29.2059993 66.3205532,29.346 C66.084552,29.4860007 65.8665542,29.6119994 65.6665532,29.724 C65.4665522,29.8360006 65.2465544,29.892 65.0065532,29.892 C64.8065522,29.892 64.6345539,29.8400005 64.4905532,29.736 C64.3465525,29.6319995 64.2305536,29.5040008 64.1425532,29.352 L63.6025532,28.404 C65.0185603,27.1079935 66.7265432,26.46 68.7265532,26.46 C69.4465568,26.46 70.0885504,26.5779988 70.6525532,26.814 C71.216556,27.0500012 71.6945512,27.3779979 72.0865532,27.798 C72.4785552,28.2180021 72.7765522,28.7199971 72.9805532,29.304 C73.1845542,29.8880029 73.2865532,30.5279965 73.2865532,31.224 L73.2865532,39 Z M67.5265532,37.152 C67.8305547,37.152 68.1105519,37.1240003 68.3665532,37.068 C68.6225545,37.0119997 68.8645521,36.9280006 69.0925532,36.816 C69.3205543,36.7039994 69.5405521,36.5660008 69.7525532,36.402 C69.9645543,36.2379992 70.1785521,36.0440011 70.3945532,35.82 L70.3945532,33.744 C69.5305489,33.7840002 68.8085561,33.8579995 68.2285532,33.966 C67.6485503,34.0740005 67.182555,34.2119992 66.8305532,34.38 C66.4785514,34.5480008 66.2285539,34.7439989 66.0805532,34.968 C65.9325525,35.1920011 65.8585532,35.4359987 65.8585532,35.7 C65.8585532,36.2200026 66.0125517,36.5919989 66.3205532,36.816 C66.6285547,37.0400011 67.0305507,37.152 67.5265532,37.152 Z M79.2972766,21.168 L79.2972766,39 L76.3332766,39 L76.3332766,21.168 L79.2972766,21.168 Z" id="goyal"></path>
            <path d="M84.5372766,37.368 C84.5372766,37.1199988 84.5832761,36.8840011 84.6752766,36.66 C84.7672771,36.4359989 84.8952758,36.2440008 85.0592766,36.084 C85.2232774,35.9239992 85.4172755,35.7960005 85.6412766,35.7 C85.8652777,35.6039995 86.1052753,35.556 86.3612766,35.556 C86.6092778,35.556 86.8452755,35.6039995 87.0692766,35.7 C87.2932777,35.7960005 87.4852758,35.9239992 87.6452766,36.084 C87.8052774,36.2440008 87.9332761,36.4359989 88.0292766,36.66 C88.1252771,36.8840011 88.1732766,37.1199988 88.1732766,37.368 C88.1732766,37.6240013 88.1252771,37.8619989 88.0292766,38.082 C87.9332761,38.3020011 87.8052774,38.4919992 87.6452766,38.652 C87.4852758,38.8120008 87.2932777,38.9379995 87.0692766,39.03 C86.8452755,39.1220005 86.6092778,39.168 86.3612766,39.168 C86.1052753,39.168 85.8652777,39.1220005 85.6412766,39.03 C85.4172755,38.9379995 85.2232774,38.8120008 85.0592766,38.652 C84.8952758,38.4919992 84.7672771,38.3020011 84.6752766,38.082 C84.5832761,37.8619989 84.5372766,37.6240013 84.5372766,37.368 Z" id="."></path>
        </g>
    </g>
</svg>