<?xml version="1.0" encoding="UTF-8"?>
<svg width="90px" height="45px" viewBox="0 0 90 45" version="1.1" xmlns="http://www.w3.org/2000/svg" xmlns:xlink="http://www.w3.org/1999/xlink">
    <!-- Generator: Sketch 47.1 (45422) - http://www.bohemiancoding.com/sketch -->
    <title>Combined Shape</title>
    <desc>Created with Sketch.</desc>
    <defs></defs>
    <g id="Page-1" stroke="none" stroke-width="1" fill="none" fill-rule="evenodd">
        <path d="M6.06449999,18.235 C4.466492,18.235 3.22492108,17.8864202 2.33974999,17.18925 C1.4545789,16.4920798 0.980666972,15.4855066 0.917999992,14.1695 L3.59699999,14.1695 C3.67533372,14.7961698 3.89074823,15.2818316 4.24324999,15.6265 C4.59575175,15.9711684 5.19499576,16.1435 6.04099999,16.1435 C6.8086705,16.1435 7.36874823,16.0103347 7.72124999,15.744 C8.07375175,15.4776653 8.24999999,15.0860026 8.24999999,14.569 C8.24999999,14.0676642 8.03850211,13.6995012 7.61549999,13.4645 C7.19249788,13.2294988 6.5266712,13.0336674 5.61799999,12.877 C4.80332925,12.751666 4.11400281,12.5950009 3.54999999,12.407 C2.98599717,12.2189991 2.52775175,11.9761682 2.17524999,11.6785 C1.82274823,11.3808318 1.56816744,11.0283354 1.41149999,10.621 C1.25483254,10.2136646 1.17649999,9.72016957 1.17649999,9.1405 C1.17649999,8.52949695 1.30966533,7.99291898 1.57599999,7.53075 C1.84233466,7.06858102 2.1909145,6.68475153 2.62174999,6.37925 C3.05258548,6.07374847 3.54216392,5.84266745 4.09049999,5.686 C4.63883607,5.52933255 5.20283043,5.451 5.78249999,5.451 C6.40916979,5.451 7.00058054,5.51366604 7.55674999,5.639 C8.11291944,5.76433396 8.60249788,5.97191522 9.02549999,6.26175 C9.44850211,6.55158478 9.79708195,6.93541428 10.07125,7.41325 C10.345418,7.89108572 10.5216663,8.47466322 10.6,9.164 L7.96799999,9.164 C7.84266603,8.59999718 7.61158501,8.18483467 7.27474999,7.9185 C6.93791497,7.65216533 6.44050328,7.519 5.78249999,7.519 C5.17149694,7.519 4.69366838,7.65216533 4.34899999,7.9185 C4.0043316,8.18483467 3.83199999,8.53733114 3.83199999,8.976 C3.83199999,9.19533443 3.87116627,9.38724918 3.94949999,9.55175 C4.02783372,9.71625082 4.16491568,9.85724941 4.36074999,9.97475 C4.5565843,10.0922506 4.81899835,10.1979995 5.14799999,10.292 C5.47700164,10.3860005 5.8843309,10.4721663 6.36999999,10.5505 C7.09067026,10.6601672 7.7369138,10.7972492 8.30874999,10.96175 C8.88058618,11.1262508 9.36233137,11.345582 9.75399999,11.61975 C10.1456686,11.893918 10.4472489,12.2464145 10.65875,12.67725 C10.870251,13.1080855 10.976,13.6524967 10.976,14.3105 C10.976,15.5638396 10.5530042,16.5312466 9.70699999,17.21275 C8.86099576,17.8942534 7.64684124,18.235 6.06449999,18.235 Z M16.6265,18.235 C16.0624972,18.235 15.5298358,18.1645007 15.0285,18.0235 C14.5271642,17.8824993 14.0924185,17.6670848 13.72425,17.37725 C13.3560815,17.0874152 13.0623344,16.711419 12.843,16.24925 C12.6236656,15.787081 12.514,15.2348365 12.514,14.5925 C12.514,13.8718297 12.6784983,13.2647525 13.0075,12.77125 C13.3365016,12.2777475 13.7829972,11.8782515 14.347,11.57275 C14.9110028,11.2672485 15.5768295,11.0440007 16.3445,10.903 C17.1121705,10.7619993 17.9346623,10.6915 18.812,10.6915 L20.3395,10.6915 L20.3395,10.057 C20.3395,9.22666252 20.1789183,8.60783537 19.85775,8.2005 C19.5365817,7.79316463 18.9530042,7.5895 18.107,7.5895 C17.3549962,7.5895 16.7949185,7.75791498 16.42675,8.09475 C16.0585815,8.43158502 15.8353337,8.90549695 15.757,9.5165 L13.0075,9.5165 C13.070167,8.79582973 13.2503318,8.18091921 13.548,7.67175 C13.8456681,7.16258079 14.2294976,6.74350164 14.6995,6.4145 C15.1695023,6.08549836 15.7099969,5.84266745 16.321,5.686 C16.932003,5.52933255 17.5821632,5.451 18.2715,5.451 C18.9608368,5.451 19.6031637,5.52541592 20.1985,5.67425 C20.7938363,5.82308408 21.3147478,6.07374824 21.76125,6.42625 C22.2077522,6.77875176 22.5563321,7.24091381 22.807,7.81275 C23.0576679,8.38458619 23.183,9.09349577 23.183,9.9395 L23.183,18 L20.3865,18 L20.3865,16.496 C19.9791646,17.0286693 19.4856696,17.4516651 18.906,17.765 C18.3263304,18.0783349 17.5665047,18.235 16.6265,18.235 Z M17.308,16.1905 C18.1853377,16.1905 18.9099138,15.9750855 19.48175,15.54425 C20.0535862,15.1134145 20.3395,14.498504 20.3395,13.6995 L20.3395,12.4775 L18.8825,12.4775 C17.8014946,12.4775 16.9398365,12.6224152 16.2975,12.91225 C15.6551634,13.2020848 15.334,13.7229962 15.334,14.475 C15.334,14.9920026 15.4867485,15.4071651 15.79225,15.7205 C16.0977515,16.0338349 16.6029965,16.1905 17.308,16.1905 Z M26.3895,0.0225 L29.233,0.0225 L29.233,11.1145 L33.6275,5.7095 L36.7295,5.7095 L31.959,11.3495 L37.129,18 L33.839,18 L29.233,11.9605 L29.233,18 L26.3895,18 L26.3895,0.0225 Z M42.9675,18.235 C41.369492,18.235 40.1279211,17.8864202 39.24275,17.18925 C38.3575789,16.4920798 37.883667,15.4855066 37.821,14.1695 L40.5,14.1695 C40.5783337,14.7961698 40.7937482,15.2818316 41.14625,15.6265 C41.4987518,15.9711684 42.0979958,16.1435 42.944,16.1435 C43.7116705,16.1435 44.2717482,16.0103347 44.62425,15.744 C44.9767518,15.4776653 45.153,15.0860026 45.153,14.569 C45.153,14.0676642 44.9415021,13.6995012 44.5185,13.4645 C44.0954979,13.2294988 43.4296712,13.0336674 42.521,12.877 C41.7063293,12.751666 41.0170028,12.5950009 40.453,12.407 C39.8889972,12.2189991 39.4307518,11.9761682 39.07825,11.6785 C38.7257482,11.3808318 38.4711674,11.0283354 38.3145,10.621 C38.1578325,10.2136646 38.0795,9.72016957 38.0795,9.1405 C38.0795,8.52949695 38.2126653,7.99291898 38.479,7.53075 C38.7453347,7.06858102 39.0939145,6.68475153 39.52475,6.37925 C39.9555855,6.07374847 40.4451639,5.84266745 40.9935,5.686 C41.5418361,5.52933255 42.1058304,5.451 42.6855,5.451 C43.3121698,5.451 43.9035805,5.51366604 44.45975,5.639 C45.0159194,5.76433396 45.5054979,5.97191522 45.9285,6.26175 C46.3515021,6.55158478 46.700082,6.93541428 46.97425,7.41325 C47.248418,7.89108572 47.4246663,8.47466322 47.503,9.164 L44.871,9.164 C44.745666,8.59999718 44.514585,8.18483467 44.17775,7.9185 C43.840915,7.65216533 43.3435033,7.519 42.6855,7.519 C42.0744969,7.519 41.5966684,7.65216533 41.252,7.9185 C40.9073316,8.18483467 40.735,8.53733114 40.735,8.976 C40.735,9.19533443 40.7741663,9.38724918 40.8525,9.55175 C40.9308337,9.71625082 41.0679157,9.85724941 41.26375,9.97475 C41.4595843,10.0922506 41.7219984,10.1979995 42.051,10.292 C42.3800016,10.3860005 42.7873309,10.4721663 43.273,10.5505 C43.9936703,10.6601672 44.6399138,10.7972492 45.21175,10.96175 C45.7835862,11.1262508 46.2653314,11.345582 46.657,11.61975 C47.0486686,11.893918 47.3502489,12.2464145 47.56175,12.67725 C47.7732511,13.1080855 47.879,13.6524967 47.879,14.3105 C47.879,15.5638396 47.4560042,16.5312466 46.61,17.21275 C45.7639958,17.8942534 44.5498412,18.235 42.9675,18.235 Z M50.31,0.0225 L53.1535,0.0225 L53.1535,7.66 C53.4511682,7.06466369 53.9329133,6.54766886 54.59875,6.109 C55.2645867,5.67033114 56.1066616,5.451 57.125,5.451 C57.7360031,5.451 58.2999974,5.54499906 58.817,5.733 C59.3340026,5.92100094 59.7804981,6.20691475 60.1565,6.59075 C60.5325019,6.97458525 60.8223323,7.47199695 61.026,8.083 C61.2296677,8.69400305 61.3315,9.42249577 61.3315,10.2685 L61.3315,18 L58.488,18 L58.488,10.527 C58.488,9.5869953 58.2921686,8.90158549 57.9005,8.47075 C57.5088314,8.03991451 56.8900042,7.8245 56.044,7.8245 C55.244996,7.8245 54.5635028,8.07124753 53.9995,8.56475 C53.4354972,9.05825247 53.1535,9.79066181 53.1535,10.762 L53.1535,18 L50.31,18 L50.31,0.0225 Z M67.7575,18.235 C67.1934972,18.235 66.6608358,18.1645007 66.1595,18.0235 C65.6581642,17.8824993 65.2234185,17.6670848 64.85525,17.37725 C64.4870815,17.0874152 64.1933344,16.711419 63.974,16.24925 C63.7546656,15.787081 63.645,15.2348365 63.645,14.5925 C63.645,13.8718297 63.8094984,13.2647525 64.1385,12.77125 C64.4675016,12.2777475 64.9139972,11.8782515 65.478,11.57275 C66.0420028,11.2672485 66.7078295,11.0440007 67.4755,10.903 C68.2431705,10.7619993 69.0656623,10.6915 69.943,10.6915 L71.4705,10.6915 L71.4705,10.057 C71.4705,9.22666252 71.3099183,8.60783537 70.98875,8.2005 C70.6675817,7.79316463 70.0840042,7.5895 69.238,7.5895 C68.4859962,7.5895 67.9259185,7.75791498 67.55775,8.09475 C67.1895815,8.43158502 66.9663337,8.90549695 66.888,9.5165 L64.1385,9.5165 C64.201167,8.79582973 64.3813318,8.18091921 64.679,7.67175 C64.9766682,7.16258079 65.3604976,6.74350164 65.8305,6.4145 C66.3005023,6.08549836 66.8409969,5.84266745 67.452,5.686 C68.0630031,5.52933255 68.7131632,5.451 69.4025,5.451 C70.0918368,5.451 70.7341637,5.52541592 71.3295,5.67425 C71.9248363,5.82308408 72.4457478,6.07374824 72.89225,6.42625 C73.3387522,6.77875176 73.6873321,7.24091381 73.938,7.81275 C74.1886679,8.38458619 74.314,9.09349577 74.314,9.9395 L74.314,18 L71.5175,18 L71.5175,16.496 C71.1101646,17.0286693 70.6166696,17.4516651 70.037,17.765 C69.4573304,18.0783349 68.6975047,18.235 67.7575,18.235 Z M68.439,16.1905 C69.3163377,16.1905 70.0409138,15.9750855 70.61275,15.54425 C71.1845862,15.1134145 71.4705,14.498504 71.4705,13.6995 L71.4705,12.4775 L70.0135,12.4775 C68.9324946,12.4775 68.0708365,12.6224152 67.4285,12.91225 C66.7861635,13.2020848 66.465,13.7229962 66.465,14.475 C66.465,14.9920026 66.6177485,15.4071651 66.92325,15.7205 C67.2287515,16.0338349 67.7339965,16.1905 68.439,16.1905 Z M81.7035,18.2115 C80.4814939,18.2115 79.5571698,17.8981698 78.9305,17.2715 C78.3038302,16.6448302 77.9905,15.7440059 77.9905,14.569 L77.9905,7.848 L76.3455,7.848 L76.3455,5.7095 L77.9905,5.7095 L77.9905,3.007 L80.834,3.007 L80.834,5.7095 L83.5365,5.7095 L83.5365,7.848 L80.834,7.848 L80.834,14.3105 C80.834,14.8588361 80.9554155,15.2583321 81.19825,15.509 C81.4410845,15.7596679 81.7896644,15.885 82.244,15.885 C82.7923361,15.885 83.2544981,15.8066675 83.6305,15.65 L83.6305,17.906 C83.4111656,17.9843337 83.1448349,18.054833 82.8315,18.1175 C82.5181651,18.180167 82.1421689,18.2115 81.7035,18.2115 Z M29.344,44.512 C28.3726618,44.512 27.5345035,44.4101677 26.8295,44.2065 C26.1244965,44.0028323 25.5330857,43.7169185 25.05525,43.34875 C24.5774143,42.9805815 24.2053347,42.5497525 23.939,42.05625 C23.6726653,41.5627475 23.5003337,41.0183363 23.422,40.423 L26.289,40.423 C26.414334,41.0340031 26.7159143,41.507915 27.19375,41.84475 C27.6715857,42.181585 28.3804953,42.35 29.3205,42.35 C30.4328389,42.35 31.2827471,42.0758361 31.87025,41.5275 C32.4577529,40.9791639 32.7515,40.1488389 32.7515,39.0365 L32.7515,37.227 C32.5791658,37.5246682 32.3598347,37.810582 32.0935,38.08475 C31.8271653,38.358918 31.5177518,38.6017489 31.16525,38.81325 C30.8127482,39.0247511 30.4328354,39.193166 30.0255,39.3185 C29.6181646,39.443834 29.1873356,39.5065 28.733,39.5065 C27.9653295,39.5065 27.2485867,39.369418 26.58275,39.09525 C25.9169133,38.821082 25.3411691,38.4294192 24.8555,37.92025 C24.3698309,37.4110808 23.9860014,36.7961703 23.704,36.0755 C23.4219986,35.3548297 23.281,34.5480045 23.281,33.655 L23.281,33.4905 C23.281,32.628829 23.418082,31.829837 23.69225,31.0935 C23.966418,30.357163 24.3502475,29.7187527 24.84375,29.17825 C25.3372525,28.6377473 25.92083,28.2147515 26.5945,27.90925 C27.26817,27.6037485 28.004496,27.451 28.8035,27.451 C29.8218384,27.451 30.6443302,27.6546646 31.271,28.062 C31.8976698,28.4693354 32.3911649,28.9784969 32.7515,29.5895 L32.7515,27.7095 L35.595,27.7095 L35.595,39.0835 C35.5793332,40.9008424 35.0114223,42.2599122 33.89125,43.16075 C32.7710777,44.0615878 31.2553429,44.512 29.344,44.512 Z M29.438,37.321 C30.4250049,37.321 31.2396634,36.9880867 31.882,36.32225 C32.5243365,35.6564133 32.8455,34.7360059 32.8455,33.561 L32.8455,33.3965 C32.8455,32.2214941 32.5517529,31.3089199 31.96425,30.65875 C31.3767471,30.0085801 30.5660052,29.6835 29.532,29.6835 C28.4666613,29.6835 27.6441696,30.0281632 27.0645,30.7175 C26.4848304,31.4068368 26.195,32.3154944 26.195,33.4435 L26.195,33.6315 C26.195,34.1955028 26.2772492,34.708581 26.44175,35.17075 C26.6062508,35.632919 26.8334152,36.0206651 27.12325,36.334 C27.4130848,36.6473349 27.757748,36.8901658 28.15725,37.0625 C28.556752,37.2348342 28.9836644,37.321 29.438,37.321 Z M44.418,38.026 C45.4833387,38.026 46.3136637,37.6617536 46.909,36.93325 C47.5043363,36.2047464 47.802,35.2060063 47.802,33.937 L47.802,33.7725 C47.802,32.5034937 47.5043363,31.5047536 46.909,30.77625 C46.3136637,30.0477464 45.4833387,29.6835 44.418,29.6835 C43.3526613,29.6835 42.5184197,30.0438297 41.91525,30.7645 C41.3120803,31.4851703 41.0105,32.4799937 41.0105,33.749 L41.0105,33.937 C41.0105,35.2060063 41.3081637,36.2047464 41.9035,36.93325 C42.4988363,37.6617536 43.3369946,38.026 44.418,38.026 Z M44.3945,40.235 C43.4858288,40.235 42.6476705,40.0861682 41.88,39.7885 C41.1123295,39.4908318 40.4465028,39.0678361 39.8825,38.5195 C39.3184972,37.9711639 38.8798349,37.3131705 38.5665,36.5455 C38.2531651,35.7778295 38.0965,34.9240047 38.0965,33.984 L38.0965,33.796 C38.0965,32.8403286 38.2570817,31.9747539 38.57825,31.19925 C38.8994183,30.4237461 39.3419972,29.7579194 39.906,29.20175 C40.4700028,28.6455806 41.1358295,28.2147515 41.9035,27.90925 C42.6711705,27.6037485 43.5093288,27.451 44.418,27.451 C45.3110045,27.451 46.1413295,27.5998318 46.909,27.8975 C47.6766705,28.1951682 48.3424972,28.6220806 48.9065,29.17825 C49.4705028,29.7344194 49.9130817,30.3963295 50.23425,31.164 C50.5554183,31.9316705 50.716,32.7854953 50.716,33.7255 L50.716,33.9135 C50.716,34.8691714 50.5554183,35.7347461 50.23425,36.51025 C49.9130817,37.2857539 49.4705028,37.9515806 48.9065,38.50775 C48.3424972,39.0639194 47.6766705,39.4908318 46.909,39.7885 C46.1413295,40.0861682 45.3031712,40.235 44.3945,40.235 Z M56.343,38.7545 L51.4785,27.7095 L54.557,27.7095 L57.8235,35.629 L60.8315,27.7095 L63.6045,27.7095 L56.907,44.2065 L54.1105,44.2065 L56.343,38.7545 Z M68.6205,40.235 C68.0564972,40.235 67.5238358,40.1645007 67.0225,40.0235 C66.5211642,39.8824993 66.0864185,39.6670848 65.71825,39.37725 C65.3500815,39.0874152 65.0563344,38.711419 64.837,38.24925 C64.6176656,37.787081 64.508,37.2348365 64.508,36.5925 C64.508,35.8718297 64.6724984,35.2647525 65.0015,34.77125 C65.3305016,34.2777475 65.7769972,33.8782515 66.341,33.57275 C66.9050028,33.2672485 67.5708295,33.0440007 68.3385,32.903 C69.1061705,32.7619993 69.9286623,32.6915 70.806,32.6915 L72.3335,32.6915 L72.3335,32.057 C72.3335,31.2266625 72.1729183,30.6078354 71.85175,30.2005 C71.5305817,29.7931646 70.9470042,29.5895 70.101,29.5895 C69.3489962,29.5895 68.7889185,29.757915 68.42075,30.09475 C68.0525815,30.431585 67.8293337,30.9054969 67.751,31.5165 L65.0015,31.5165 C65.064167,30.7958297 65.2443318,30.1809192 65.542,29.67175 C65.8396682,29.1625808 66.2234976,28.7435016 66.6935,28.4145 C67.1635023,28.0854984 67.7039969,27.8426675 68.315,27.686 C68.9260031,27.5293325 69.5761632,27.451 70.2655,27.451 C70.9548368,27.451 71.5971637,27.5254159 72.1925,27.67425 C72.7878363,27.8230841 73.3087478,28.0737482 73.75525,28.42625 C74.2017522,28.7787518 74.5503321,29.2409138 74.801,29.81275 C75.0516679,30.3845862 75.177,31.0934958 75.177,31.9395 L75.177,40 L72.3805,40 L72.3805,38.496 C71.9731646,39.0286693 71.4796696,39.4516651 70.9,39.765 C70.3203304,40.0783349 69.5605047,40.235 68.6205,40.235 Z M69.302,38.1905 C70.1793377,38.1905 70.9039138,37.9750855 71.47575,37.54425 C72.0475862,37.1134145 72.3335,36.498504 72.3335,35.6995 L72.3335,34.4775 L70.8765,34.4775 C69.7954946,34.4775 68.9338365,34.6224152 68.2915,34.91225 C67.6491635,35.2020848 67.328,35.7229962 67.328,36.475 C67.328,36.9920026 67.4807485,37.4071651 67.78625,37.7205 C68.0917515,38.0338349 68.5969965,38.1905 69.302,38.1905 Z M78.454,22.0225 L81.2975,22.0225 L81.2975,40 L78.454,40 L78.454,22.0225 Z M87.6525,40.1645 C87.1354974,40.1645 86.6968351,39.9882518 86.3365,39.63575 C85.9761649,39.2832482 85.796,38.8485026 85.796,38.3315 C85.796,37.8144974 85.9761649,37.3758351 86.3365,37.0155 C86.6968351,36.6551649 87.1354974,36.475 87.6525,36.475 C88.1851693,36.475 88.6316649,36.6551649 88.992,37.0155 C89.3523351,37.3758351 89.5325,37.8144974 89.5325,38.3315 C89.5325,38.8485026 89.3523351,39.2832482 88.992,39.63575 C88.6316649,39.9882518 88.1851693,40.1645 87.6525,40.1645 Z" id="Combined-Shape" fill="#4A4A4A"></path>
    </g>
</svg>